<?xml version="1.0" encoding="UTF-8"?>
<svg id="Ebene_1" data-name="Ebene 1" xmlns="http://www.w3.org/2000/svg" viewBox="0 0 163.37 146.68">
  <defs>
    <style>
      .cls-1 {
        fill: #fff;
        font-family: Arial-Black, Arial;
        font-size: 29.13px;
        font-weight: 800;
      }

      .cls-2 {
        fill: #fdc62f;
      }

      .cls-3 {
        fill: #004d8e;
      }

      .cls-4 {
        letter-spacing: -.02em;
      }

      .cls-5 {
        letter-spacing: 0em;
      }
    </style>
  </defs>
  <rect class="cls-3" x="101.75" y="27.5" width="50.38" height="65.51"/>
  <text class="cls-1" transform="translate(103.97 53.75)"><tspan class="cls-4" x="0" y="0">R</tspan><tspan class="cls-5" x="22.16" y="0">V</tspan></text>
  <path class="cls-2" d="m97.67,28.05c0-.2-.01-.41-.03-.61h-13.63c-.04.61-.04,1.22-.04,1.83,0,11.37,0,22.73-.02,34.1,0,.91.04,1.84-.14,2.72-.76,3.87-2.75,7-5.84,9.45-6.06,4.81-13.64,3.11-17.03-3.84-1.36-2.78-1.85-5.73-1.85-8.81.02-16.31.02-32.62,0-48.92,0-.3-.02-.6-.05-.91h-14.26c-.24,3.98-.59,7.95-.98,11.91-.47,4.79-.99,9.58-1.58,14.36-.86,6.94-1.76,13.87-2.72,20.8-.59,4.26-1.39,8.48-2.82,12.56-2.9,8.29-6.63,16.2-11.1,23.74-3.39,5.73-7.1,11.27-10.53,16.98-1.49,2.48-2.78,5.1-3.88,7.78-1.04,2.53-.8,5.11.7,7.49,1.07,1.71,1.97,2.5,3.61,3.6.33.22,2.36.84,2.78.89,2.73.35,4.38-.16,6.73-1.66,2.88-1.84,4.69-4.57,5.8-7.71,1.43-4.05,2.75-8.15,3.9-12.28,2.24-8.05,4.37-16.12,6.46-24.21,2.05-7.98,3.98-15.98,5.98-23.97.2-.78.45-1.55.68-2.32.08.02.15.04.23.06,0,.3.02.6,0,.89-.33,3.98,0,7.93.45,11.88.44,3.9,1.24,7.72,3.01,11.26,1.52,3.05,3.61,5.64,6.8,7.05,4.69,2.08,9.51,1.61,14.23.21,5.51-1.63,9.73-5.16,13.14-9.72.32-.42.59-.88.88-1.32.07.03.13.06.2.08.02.18.05.35.06.53.09,2.38.55,4.68,1.44,6.9,1.37,3.42,4.12,5.07,7.76,4.56.57-.08,1.12-.2,1.66-.36V28.05Z"/>
  <text class="cls-1" transform="translate(128.51 88.74)"><tspan x="0" y="0">2</tspan></text>
  <text class="cls-1" transform="translate(106.01 88.91)"><tspan x="0" y="0">3</tspan></text>
</svg>